<svg width="40.000000" height="40.000000" viewBox="0 0 40 40" fill="none" xmlns="http://www.w3.org/2000/svg" xmlns:xlink="http://www.w3.org/1999/xlink">
	<desc>
			Created with Pixso.
	</desc>
	<defs>
		<clipPath id="clip2_20">
			<rect id="github" width="24.000000" height="24.000000" transform="translate(8.000000 8.000000)" fill="white" fill-opacity="0"/>
		</clipPath>
		<clipPath id="clip3_364">
			<rect id="Icons / Social" width="40.000000" height="40.000000" fill="white" fill-opacity="0"/>
		</clipPath>
	</defs>
	<g clip-path="url(#clip3_364)">
		<rect id="github" width="24.000000" height="24.000000" transform="translate(8.000000 8.000000)" fill="#FFFFFF" fill-opacity="0"/>
		<g clip-path="url(#clip2_20)">
			<path id="Vector" d="M19.99 8.24C13.37 8.24 8 13.64 8 20.29C8 25.62 11.43 30.13 16.2 31.72C16.8 31.84 17.02 31.46 17.02 31.14L17 29.09C13.67 29.82 12.96 27.48 12.96 27.48C12.42 26.09 11.63 25.72 11.63 25.72C10.54 24.97 11.71 24.99 11.71 24.99C12.92 25.07 13.55 26.23 13.55 26.23C14.62 28.07 16.36 27.54 17.04 27.23C17.15 26.45 17.46 25.92 17.81 25.61C15.14 25.31 12.34 24.28 12.34 19.66C12.34 18.35 12.81 17.27 13.57 16.43C13.45 16.12 13.04 14.9 13.69 13.24C13.69 13.24 14.7 12.92 16.99 14.47C17.95 14.21 18.98 14.07 20 14.07C21.02 14.07 22.04 14.21 23 14.47C25.29 12.92 26.3 13.24 26.3 13.24C26.95 14.9 26.54 16.12 26.42 16.43C27.19 17.27 27.65 18.35 27.65 19.66C27.65 24.29 24.84 25.31 22.17 25.61C22.6 25.98 22.99 26.71 22.99 27.84L22.97 31.14C22.97 31.46 23.19 31.84 23.8 31.72C28.56 30.13 32 25.61 32 20.29C32 13.64 26.62 8.24 19.99 8.24Z" fill="#3E75C3" fill-opacity="1.000000" fill-rule="evenodd"/>
		</g>
	</g>
</svg>
