<svg width="40.000000" height="40.000000" viewBox="0 0 40 40" fill="none" xmlns="http://www.w3.org/2000/svg" xmlns:xlink="http://www.w3.org/1999/xlink">
	<desc>
			Created with Pixso.
	</desc>
	<defs>
		<clipPath id="clip2_18">
			<rect id="linkedin" width="24.000000" height="24.000000" transform="translate(8.000000 8.000000)" fill="white" fill-opacity="0"/>
		</clipPath>
		<clipPath id="clip3_366">
			<rect id="Icons / Social" width="40.000000" height="40.000000" fill="white" fill-opacity="0"/>
		</clipPath>
	</defs>
	<g clip-path="url(#clip3_366)">
		<rect id="linkedin" width="24.000000" height="24.000000" transform="translate(8.000000 8.000000)" fill="#FFFFFF" fill-opacity="0"/>
		<g clip-path="url(#clip2_18)">
			<path id="Vector" d="M8.6 16.08L13.28 16.08L13.28 30.9L8.6 30.9L8.6 16.08ZM10.82 14.23L10.79 14.23C9.09 14.23 8 13.1 8 11.66C8 10.19 9.13 9.09 10.85 9.09C12.58 9.09 13.64 10.19 13.67 11.66C13.67 13.09 12.58 14.23 10.82 14.23L10.82 14.23ZM32 30.9L26.69 30.9L26.69 23.23C26.69 21.23 25.86 19.86 24.03 19.86C22.64 19.86 21.86 20.78 21.5 21.67C21.37 21.99 21.39 22.44 21.39 22.88L21.39 30.9L16.13 30.9L16.13 16.08L21.39 16.08L21.39 18.41C21.7 17.39 23.38 15.94 26.06 15.94C29.38 15.94 31.99 18.07 31.99 22.66L31.99 30.9L32 30.9Z" fill="#007EBB" fill-opacity="1.000000" fill-rule="evenodd"/>
		</g>
	</g>
</svg>
