<svg width="40.000000" height="40.000000" viewBox="0 0 40 40" fill="none" xmlns="http://www.w3.org/2000/svg" xmlns:xlink="http://www.w3.org/1999/xlink">
	<desc>
			Created with Pixso.
	</desc>
	<defs>
		<clipPath id="clip2_9">
			<rect id="twitter" width="24.000000" height="24.000000" transform="translate(8.000000 8.000000)" fill="white" fill-opacity="0"/>
		</clipPath>
		<clipPath id="clip3_368">
			<rect id="Icons / Social" width="40.000000" height="40.000000" fill="white" fill-opacity="0"/>
		</clipPath>
	</defs>
	<g clip-path="url(#clip3_368)">
		<rect id="twitter" width="24.000000" height="24.000000" transform="translate(8.000000 8.000000)" fill="#FFFFFF" fill-opacity="0"/>
		<g clip-path="url(#clip2_9)">
			<path id="Vector" d="M32 12.36C31.1 12.77 30.15 13.04 29.17 13.16C30.18 12.53 30.97 11.54 31.33 10.36C30.38 10.94 29.33 11.36 28.2 11.59C27.31 10.61 26.03 10 24.61 10C21.89 10 19.69 12.26 19.69 15.04C19.69 15.44 19.73 15.82 19.82 16.19C15.72 15.98 12.1 13.97 9.66 10.92C9.24 11.66 9 12.53 9 13.46C9 15.21 9.87 16.75 11.19 17.66C10.38 17.64 9.62 17.41 8.96 17.03L8.96 17.09C8.96 19.54 10.65 21.58 12.91 22.04C12.5 22.16 12.06 22.22 11.61 22.22C11.3 22.22 10.99 22.19 10.68 22.13C11.31 24.14 13.13 25.6 15.28 25.63C13.6 26.99 11.47 27.8 9.17 27.8C8.77 27.8 8.38 27.77 7.99 27.73C10.17 29.16 12.76 29.99 15.54 29.99C24.6 29.99 29.55 22.3 29.55 15.63C29.55 15.41 29.55 15.19 29.54 14.98C30.5 14.26 31.34 13.37 31.99 12.36L32 12.36Z" fill="#00AAEC" fill-opacity="1.000000" fill-rule="evenodd"/>
		</g>
	</g>
</svg>
