<svg width="24.000000" height="24.000000" viewBox="0 0 24 24" fill="none" xmlns="http://www.w3.org/2000/svg" xmlns:xlink="http://www.w3.org/1999/xlink">
	<desc>
			Created with Pixso.
	</desc>
	<defs>
		<clipPath id="clip106_203">
			<rect id="Name=CV" width="24.000000" height="24.000000" fill="white" fill-opacity="0"/>
		</clipPath>
	</defs>
	<rect id="Name=CV" width="24.000000" height="24.000000" fill="#FFFFFF" fill-opacity="0"/>
	<g clip-path="url(#clip106_203)">
		<path id="Vector" d="M16.5 6L16.5 17.5C16.5 19.7 14.71 21.5 12.5 21.5C10.29 21.5 8.5 19.7 8.5 17.5L8.5 5C8.5 3.62 9.62 2.5 11 2.5C12.37 2.5 13.5 3.62 13.5 5L13.5 15.5C13.5 16.04 13.05 16.5 12.5 16.5C11.95 16.5 11.5 16.04 11.5 15.5L11.5 6L10 6L10 15.5C10 16.87 11.12 18 12.5 18C13.87 18 15 16.87 15 15.5L15 5C15 2.79 13.21 1 11 1C8.79 1 7 2.79 7 5L7 17.5C7 20.54 9.45 23 12.5 23C15.54 23 18 20.54 18 17.5L18 6L16.5 6Z" fill="#211B12" fill-opacity="1.000000" fill-rule="nonzero"/>
	</g>
</svg>
